<?xml version="1.0" encoding="UTF-8"?>
<svg id="Layer_1" data-name="Layer 1" xmlns="http://www.w3.org/2000/svg" xmlns:xlink="http://www.w3.org/1999/xlink" viewBox="0 0 64 64">
  <defs>
    <style>
      .cls-1 {
        fill: url(#linear-gradient-28);
      }

      .cls-2 {
        fill: url(#linear-gradient-9);
      }

      .cls-2, .cls-3, .cls-4, .cls-5, .cls-6, .cls-7, .cls-8, .cls-9, .cls-10, .cls-11, .cls-12 {
        opacity: .26;
      }

      .cls-13 {
        fill: url(#linear-gradient-2);
      }

      .cls-14 {
        fill: url(#linear-gradient-25);
      }

      .cls-15 {
        fill: url(#linear-gradient-12);
      }

      .cls-16 {
        fill: url(#linear-gradient-40);
      }

      .cls-17 {
        fill: url(#linear-gradient-27);
      }

      .cls-3 {
        fill: url(#linear-gradient-7);
      }

      .cls-18 {
        fill: url(#linear-gradient-37);
      }

      .cls-19 {
        fill: url(#linear-gradient-39);
      }

      .cls-20 {
        fill: url(#linear-gradient-26);
      }

      .cls-21 {
        fill: url(#linear-gradient-4);
      }

      .cls-22 {
        fill: url(#linear-gradient-35);
      }

      .cls-23 {
        fill: url(#linear-gradient-30);
      }

      .cls-24 {
        opacity: .18;
      }

      .cls-4 {
        fill: url(#linear-gradient-8);
      }

      .cls-25 {
        fill: url(#linear-gradient-3);
      }

      .cls-26 {
        fill: url(#linear-gradient-34);
      }

      .cls-27 {
        fill: url(#linear-gradient-5);
      }

      .cls-5 {
        fill: url(#linear-gradient-14);
      }

      .cls-28 {
        fill: url(#linear-gradient-38);
      }

      .cls-29 {
        fill: url(#linear-gradient-22);
      }

      .cls-30 {
        fill: url(#linear-gradient-24);
      }

      .cls-6 {
        fill: url(#linear-gradient-15);
      }

      .cls-31 {
        fill: url(#linear-gradient-33);
      }

      .cls-7 {
        fill: url(#linear-gradient-10);
      }

      .cls-32 {
        fill: url(#linear-gradient-29);
      }

      .cls-8 {
        fill: url(#linear-gradient-16);
      }

      .cls-33 {
        fill: url(#linear-gradient-20);
      }

      .cls-34 {
        fill: url(#linear-gradient-11);
      }

      .cls-35 {
        fill: url(#linear-gradient-19);
      }

      .cls-36 {
        fill: url(#linear-gradient-6);
      }

      .cls-37 {
        fill: url(#linear-gradient-36);
      }

      .cls-38 {
        fill: url(#linear-gradient-21);
      }

      .cls-39 {
        fill: url(#linear-gradient-32);
      }

      .cls-40 {
        fill: url(#linear-gradient);
      }

      .cls-10 {
        fill: url(#linear-gradient-13);
      }

      .cls-41 {
        fill: url(#linear-gradient-23);
      }

      .cls-42 {
        fill: url(#linear-gradient-31);
      }

      .cls-11 {
        fill: url(#linear-gradient-18);
      }

      .cls-12 {
        fill: url(#linear-gradient-17);
      }
    </style>
    <linearGradient id="linear-gradient" x1="16.12" y1="6.5" x2="47.78" y2="36.71" gradientUnits="userSpaceOnUse">
      <stop offset="0" stop-color="#1caf94"/>
      <stop offset=".47" stop-color="#507bbe"/>
      <stop offset="1" stop-color="#6d67ae"/>
    </linearGradient>
    <linearGradient id="linear-gradient-2" x1="13.8" y1="15.86" x2="49.19" y2="17.68" xlink:href="#linear-gradient"/>
    <linearGradient id="linear-gradient-3" x1="13.58" y1="20.11" x2="48.98" y2="21.92" xlink:href="#linear-gradient"/>
    <linearGradient id="linear-gradient-4" x1="13.74" y1="16.99" x2="49.14" y2="18.8" xlink:href="#linear-gradient"/>
    <linearGradient id="linear-gradient-5" x1="13.8" y1="15.81" x2="49.2" y2="17.63" xlink:href="#linear-gradient"/>
    <linearGradient id="linear-gradient-6" x1="13.58" y1="20.16" x2="48.97" y2="21.97" xlink:href="#linear-gradient"/>
    <linearGradient id="linear-gradient-7" x1="13.26" y1="26.34" x2="48.66" y2="28.16" xlink:href="#linear-gradient"/>
    <linearGradient id="linear-gradient-8" x1="13.25" y1="26.67" x2="48.64" y2="28.49" xlink:href="#linear-gradient"/>
    <linearGradient id="linear-gradient-9" x1="13.75" y1="16.84" x2="49.14" y2="18.65" xlink:href="#linear-gradient"/>
    <linearGradient id="linear-gradient-10" x1="13.75" y1="16.82" x2="49.15" y2="18.64" xlink:href="#linear-gradient"/>
    <linearGradient id="linear-gradient-11" x1="13.27" y1="26.17" x2="48.67" y2="27.99" xlink:href="#linear-gradient"/>
    <linearGradient id="linear-gradient-12" x1="13.41" y1="23.54" x2="48.8" y2="25.36" xlink:href="#linear-gradient"/>
    <linearGradient id="linear-gradient-13" x1="13.53" y1="21.08" x2="48.93" y2="22.9" xlink:href="#linear-gradient"/>
    <linearGradient id="linear-gradient-14" x1="13.52" y1="21.39" x2="48.91" y2="23.2" xlink:href="#linear-gradient"/>
    <linearGradient id="linear-gradient-15" x1="13.44" y1="22.95" x2="48.83" y2="24.77" xlink:href="#linear-gradient"/>
    <linearGradient id="linear-gradient-16" x1="13.16" y1="28.27" x2="48.56" y2="30.09" xlink:href="#linear-gradient"/>
    <linearGradient id="linear-gradient-17" x1="13.18" y1="27.89" x2="48.58" y2="29.71" xlink:href="#linear-gradient"/>
    <linearGradient id="linear-gradient-18" x1="13.04" y1="30.78" x2="48.43" y2="32.6" xlink:href="#linear-gradient"/>
    <linearGradient id="linear-gradient-19" x1="-14.25" y1="57.73" x2="86.16" y2="58.54" xlink:href="#linear-gradient"/>
    <linearGradient id="linear-gradient-20" x1="-14.25" y1="57.61" x2="86.16" y2="58.42" xlink:href="#linear-gradient"/>
    <linearGradient id="linear-gradient-21" x1="-14.25" y1="57.95" x2="86.16" y2="58.75" xlink:href="#linear-gradient"/>
    <linearGradient id="linear-gradient-22" x1="-14.25" y1="57.68" x2="86.16" y2="58.49" xlink:href="#linear-gradient"/>
    <linearGradient id="linear-gradient-23" x1="-14.25" y1="57.9" x2="86.16" y2="58.71" xlink:href="#linear-gradient"/>
    <linearGradient id="linear-gradient-24" x1="-14.25" y1="58.15" x2="86.16" y2="58.96" xlink:href="#linear-gradient"/>
    <linearGradient id="linear-gradient-25" x1="-14.25" y1="57.62" x2="86.16" y2="58.43" xlink:href="#linear-gradient"/>
    <linearGradient id="linear-gradient-26" x1="-14.25" y1="57.85" x2="86.16" y2="58.66" xlink:href="#linear-gradient"/>
    <linearGradient id="linear-gradient-27" x1="-14.25" y1="57.58" x2="86.16" y2="58.38" xlink:href="#linear-gradient"/>
    <linearGradient id="linear-gradient-28" x1="-14.25" y1="57.45" x2="86.16" y2="58.26" xlink:href="#linear-gradient"/>
    <linearGradient id="linear-gradient-29" x1="-14.25" y1="57.79" x2="86.16" y2="58.6" xlink:href="#linear-gradient"/>
    <linearGradient id="linear-gradient-30" x1="-14.25" y1="57.51" x2="86.16" y2="58.32" xlink:href="#linear-gradient"/>
    <linearGradient id="linear-gradient-31" x1="-14.25" y1="57.44" x2="86.16" y2="58.25" xlink:href="#linear-gradient"/>
    <linearGradient id="linear-gradient-32" x1="-14.25" y1="57.53" x2="86.16" y2="58.33" xlink:href="#linear-gradient"/>
    <linearGradient id="linear-gradient-33" x1="-14.25" y1="57.99" x2="86.16" y2="58.8" xlink:href="#linear-gradient"/>
    <linearGradient id="linear-gradient-34" x1="-20.35" y1="40.16" x2="88.21" y2="74.91" xlink:href="#linear-gradient"/>
    <linearGradient id="linear-gradient-35" x1="-19.73" y1="38.24" x2="88.83" y2="72.98" xlink:href="#linear-gradient"/>
    <linearGradient id="linear-gradient-36" x1="-19.29" y1="36.88" x2="89.27" y2="71.62" xlink:href="#linear-gradient"/>
    <linearGradient id="linear-gradient-37" x1="-18.86" y1="35.52" x2="89.7" y2="70.26" xlink:href="#linear-gradient"/>
    <linearGradient id="linear-gradient-38" x1="-18.54" y1="34.52" x2="90.02" y2="69.26" xlink:href="#linear-gradient"/>
    <linearGradient id="linear-gradient-39" x1="-18.11" y1="33.17" x2="90.45" y2="67.92" xlink:href="#linear-gradient"/>
    <linearGradient id="linear-gradient-40" x1="-17.71" y1="31.93" x2="90.85" y2="66.67" xlink:href="#linear-gradient"/>
  </defs>
  <g>
    <path class="cls-40" d="M32.17,29.94c-.79-.42-1.64-.39-2.32.21-.03.02-.05.05-.07.08l-2.84,4.05c-.16.23-.1.54.15.66,2.76,1.34,6.86.47,9.68-.94.31-.16.35-.58.06-.78-1.37-.97-4.61-3.25-4.61-3.25-.02-.01-.03-.02-.05-.03ZM48.71,10.37c0-3.98-3.22-7.2-7.2-7.2h-19.14c-3.95,0-7.16,3.21-7.16,7.16v19.09h.02c-.01.25-.02.5-.02.75,0,3.21,1.11,6.18,3.02,8.62.46.59,1.36.55,1.79-.06l7.92-11.29s.02-.03.03-.04c.83-.98,2.45-1.48,3.69-1.17,1.53.37,6.3,4.06,7.9,5.18.08.06.17.12.26.18.71.5,1.43,1.01,2.14,1.51.23.16.27.47.08.68-.9.97-1.9,1.72-1.9,1.72,0,0-.02.01-.02.02-3.94,3.25-10.47,4.38-15.02,2.07-.21-.1-.45-.05-.59.14l-1.76,2.49c-.7.99-.34,2.35.73,2.91,2.49,1.32,5.4,2.08,8.51,2.08,9.25,0,16.75-6.74,16.75-15.06,0-.25,0-.5-.02-.75h.02V10.37ZM43.24,31.02c-1.77-1.25-8.96-6.31-8.96-6.31-.01,0-.02-.02-.04-.02-2.72-1.57-3.21-.18-5.79.09-2.81.25-4.28-1.02-6.34-2.52-.27-.19-.64-.05-.72.27-.03.12-.05.22-.05.25-.6,2.84.03,6.13,1.79,8.47.12.16.13.38.01.54l-1.31,1.86c-.17.25-.54.26-.73.02-2.93-3.8-3.63-9.11-2.17-13.66.37-1.02.86-1.91,1.33-2.65.87-1.35,1.71-2.17,1.81-2.27,0,0,.01-.01.02-.02,3.47-3.89,9.6-5.54,14.49-3.62.58.23,1.6.7,2.11,1.04h0c.21.14.26.43.12.64l-1.31,1.85c-.14.19-.41.24-.61.12-3.22-1.92-7.49-1.91-10.66.11-1.02.65-1.73,1.45-2.47,2.4,0,0-.01.02-.02.02-.31.34-.58.7-.81,1.06-.13.2-.07.47.13.61l2.47,1.73s.02.01.03.02c3.75,2.26,5.54-1.8,9.65.64.01,0,.02.01.03.02l6.48,4.54c.26.18.64.05.7-.26.76-3.45-.81-6.91-3.28-9.34-.16-.16-.19-.41-.06-.59l1.18-1.64c.27-.38.59-.41.79-.23,4.63,4.28,6.16,11.18,2.82,16.7-.14.23-.43.28-.65.13ZM32.17,29.94c-.79-.42-1.64-.39-2.32.21-.03.02-.05.05-.07.08l-2.84,4.05c-.16.23-.1.54.15.66,2.76,1.34,6.86.47,9.68-.94.31-.16.35-.58.06-.78-1.37-.97-4.61-3.25-4.61-3.25-.02-.01-.03-.02-.05-.03Z"/>
    <path class="cls-13" d="M19.71,16.69s.09-.02.12-.06c.03-.03.05-.08.08-.12.07-.12.19-.22.32-.28.1-.05.23-.07.3-.15.08-.1.07-.26-.03-.35-.16-.13-.39,0-.52.11-.17.15-.31.34-.37.56-.02.05-.03.11-.01.17.01.06.06.11.11.11Z"/>
    <path class="cls-25" d="M28.89,21.18c.06-.06.08-.14.15-.19.07-.06.19-.09.24-.18.03-.05.02-.11-.01-.16-.03-.05-.08-.08-.14-.09-.17-.03-.34.13-.51.1-.09-.02-.19-.09-.27-.05-.07.03-.09.13-.06.2.03.07.09.12.15.17.11.09.31.33.45.19Z"/>
    <path class="cls-21" d="M35.37,18.43s.11.04.14,0c.07-.07-.03-.18-.06-.24-.03-.06-.04-.12-.06-.19-.04-.13-.18-.34-.34-.21-.04.03-.06.09-.06.14,0,.05.01.1.03.15.07.16.19.29.34.36Z"/>
    <path class="cls-27" d="M35.42,17.37c.08-.2.16-.31.33-.44.14-.11.3-.24.31-.42,0-.08-.04-.18-.12-.17-.04,0-.08.04-.11.07-.2.21-.4.41-.6.62-.1.1-.2.22-.17.36.05.21.29.16.36,0Z"/>
    <path class="cls-36" d="M45.7,22.24c.03.11.09.23.17.3.03.03.16.11.21.05.03-.04-.1-.24-.12-.3-.04-.12-.08-.24-.1-.36-.02-.15-.03-.31-.06-.46-.03-.15-.09-.31-.21-.41-.05-.05-.14-.08-.19-.03-.04.04-.03.1-.01.14s.06.08.09.12c.11.13.14.3.16.46.02.16.02.33.06.49Z"/>
    <g>
      <path class="cls-3" d="M21.21,26.56s-.09.01-.09.05c0,.03.03.05.06.06.09.04.18.09.27.13.13.06.25.12.39.16.05.01.09.03.14.01.23-.07-.16-.27-.23-.3-.17-.08-.35-.12-.53-.12Z"/>
      <path class="cls-4" d="M22.38,27.03s-.11,0-.13.04c-.02.03,0,.08.02.11.03.03.06.04.1.05.08.02.16.02.23.01.08-.01.18-.08.11-.16-.07-.08-.24-.05-.33-.05Z"/>
      <g class="cls-24">
        <path class="cls-2" d="M20.14,16.55c-.07.08-.1.19-.08.29.02.1.08.19.17.25.03.02.07.03.1.06.03.03.05.07.03.11-.03.04-.09.04-.13.02-.05-.02-.09-.04-.14-.03-.05.01-.08.06-.09.12,0,.05.01.1.03.15.03.1.08.2.18.24.14.05.28-.1.43-.07.07.01.13.07.18.12s.1.11.17.14c.07.03.16,0,.19-.07.02-.06-.02-.13,0-.2.01-.09.1-.14.16-.2.17-.16.19-.43.19-.66,0-.05,0-.09-.01-.13-.02-.04-.05-.08-.1-.09-.08-.01-.14.08-.19.14-.04.05-.15.16-.23.13-.08-.03-.18-.18-.24-.24-.07-.07-.14-.14-.23-.17-.13-.05-.29-.01-.38.09Z"/>
        <path class="cls-7" d="M29.84,18.86c.08-.12.12-.29.06-.42-.06-.14-.22-.27-.15-.41.05-.1.18-.12.28-.16.24-.09.39-.37.34-.62-.12-.57.08-1.19.47-1.62.05-.05.11-.11.14-.18.03-.07.03-.16-.01-.21-.06-.06-.15-.06-.23-.04-.08.02-.16.06-.24.06-.08,0-.18-.05-.18-.13,0-.08.08-.14.15-.2.07-.05.11-.16.05-.22-.34-.26-.79-.37-1.2-.24-.25.08-.49.25-.75.24-.15,0-.29-.07-.43-.08-.15-.02-.32.03-.38.16-.29.2-.59.47-.88.66-.19.13-.39.28-.45.5-.04.16,0,.35.13.46.08.08.19.13.28.19.09.06.18.16.19.27.03.29.16.57.21.87.03.2.05.41.03.62-.04.3-.17.59-.37.82-.08.09-.11.22-.14.33s-.03.23.03.33c.05.1.15.17.17.27.01.05,0,.1,0,.15,0,.05,0,.11.04.14.03.04.16.05.21.02.1-.06.21.04.28.13.07.09.16.2.27.16.1-.03.12-.17.15-.27.07-.36.36-.63.66-.82.31-.19.65-.31.97-.5.13-.08.25-.16.33-.29Z"/>
        <g class="cls-9">
          <path class="cls-34" d="M27.85,30.05c-.12-.07-.27-.11-.41-.14-.09-.02-.18-.04-.27-.06l-.78-.17c-.1-.02-.23-.06-.25-.17-.01-.06.02-.12.03-.18.01-.06,0-.14-.06-.16-.06-.17-.24-.27-.41-.35-.16-.07-.34-.12-.5-.21-.14-.09-.25-.21-.32-.36-.11-.23-.49-.22-.74-.19-.1.01-.21.04-.31.06-.2.05-.4.11-.6.16-.02,0-.04.01-.06.02,0,0,0,0,0,0,0,0,0,0,0,0-.02,0-.03,0-.05,0-.23.04-.39-.05-.42-.06h0c-.06-.03-.12-.07-.16-.11-.07-.07-.1-.17-.11-.27,0-.1,0-.2,0-.3,0-.08-.07-.15-.16-.16s-.16,0-.25,0c-.08,0-.17-.04-.2-.12-.01-.05,0-.1.01-.15.04-.12.06-.28.16-.35.06-.04.14-.1.12-.18-.01-.04-.05-.07-.1-.08-.04,0-.09,0-.13.03-.2.1-.33.36-.56.39-.19.03-.37-.13-.43-.31-.06-.18-.05-.39-.04-.58,0-.2.16-.4.36-.45.1-.03.2-.02.3-.03.1,0,.18-.07.28-.1.13-.05.29-.03.41.05.18.13.25.36.38.55.03.05.09.1.15.08.04-.01.07-.06.07-.11,0-.05,0-.11,0-.15,0-.12-.01-.25,0-.37.02-.12.06-.24.15-.33.13-.15.37-.19.42-.38.04-.15.16-.27.29-.36.13-.09.28-.16.39-.28.09-.1.15-.22.21-.34.08-.16.25-.28.42-.3.13-.02.28,0,.36-.11.06-.08.04-.2,0-.28s-.13-.15-.19-.23c-.07-.08-.12-.17-.11-.27.01-.1.09-.18.18-.22.09-.04.19-.05.29-.05.18,0,.36.01.53-.05.17-.06.32-.21.31-.38,0-.17-.15-.29-.27-.41-.05-.05-.1-.11-.13-.18,0,0,0,0,0,0,0,0,0-.01,0-.02,0,0,0-.01,0-.02-.09-.2-.05-.37-.05-.42,0-.06,0-.14-.05-.17-.06-.04-.15,0-.2.05-.06.05-.11.11-.19.11-.09,0-.16-.1-.16-.19,0-.09.02-.19.01-.28,0-.16-.16-.27-.29-.37-.09-.08-.22-.11-.33-.05-.07.04-.12.12-.16.19-.08.15-.17.3-.18.47,0,.12.02.25,0,.37,0,.06-.03.14-.06.19,0,0,0,0,0,0-.05.09-.14.24-.15.31-.01.11-.03.22-.07.33-.02.05-.04.1-.08.12-.06.03-.14-.01-.18-.07-.04-.06-.04-.13-.05-.2-.07-.48-.4-.93-.83-1.14-.17-.09-.22-.32-.15-.5.07-.18.22-.31.37-.43.29-.23.59-.41.88-.62.12-.09.24-.17.35-.26.11-.08.22-.16.26-.29.02-.07.02-.14.04-.21s.05-.14.11-.17c.11-.05.23.03.31.12.12.13.2.28.29.43,0,0,0,0,0,0,.12.21.02.36-.09.42h0c-.14.08-.29.16-.43.23-.06.03-.12.08-.1.15.02.07.11.07.18.08.12.02.22.1.29.2.07.1.16.2.19.32.02.1.13.16.23.14.1-.02.18-.1.21-.19s.02-.2-.02-.29c-.03-.09-.03-.21-.11-.28-.04-.04-.02-.13.03-.14.04-.01.09.01.12.05.03.03.05.07.09.1.05.05.14.06.22.04.04-.02.11-.07.07-.21,0,0,0,0,0,0-.05-.16-.11-.33-.16-.49-.05-.16-.1-.32-.16-.47-.04-.13-.11-.25-.22-.32-.23-.14-.41-.33-.55-.56-.06-.1-.1-.21-.18-.29-.08-.09-.23-.22-.33-.16-.18.12-.32.31-.39.51-.03.08-.04.17-.02.25.03.08.09.15.14.22.05.07.05.17.02.25-.02.07-.05.13-.1.19-.05.05-.12.09-.19.07-.09-.02-.14-.11-.16-.2-.04-.13-.04-.26-.03-.4.02-.2.04-.4.06-.6,0-.06.01-.13.05-.17.06-.07.15-.07.24-.09s.18-.07.18-.15c0-.05-.03-.09-.08-.12-.04-.02-.1-.02-.14-.02-.15.03-.26.15-.34.28-.13.21-.14.47-.25.68-.05.1-.06.23-.06.34s0,.24-.05.35c-.05.11-.16.2-.27.18-.11-.01-.19-.11-.27-.18-.12-.11-.3-.11-.45-.18-.06-.03-.14,0-.2.04s-.13.08-.2.06c-.06-.02-.1-.08-.14-.13-.11-.13-.3-.11-.47-.15-.03,0-.07-.02-.09-.04-.03-.02-.04-.06-.03-.09.01-.03.05-.04.08-.05.03,0,.07-.01.09-.03.02-.02.03-.08.02-.11-.07-.1-.17-.19-.27-.25,0,0,0,0,0,0-.04-.02-.11-.07-.14-.09,0,0,0,0,0,0,0,0,0,0,0,0h0s-.08-.04-.13-.05c-.06-.01-.13-.02-.18-.07-.05-.05-.06-.12-.09-.17-.05-.08-.14-.13-.23-.14-.09-.02-.2-.04-.29-.01-.14.04-.28.08-.42.11-.06,0-.12.02-.18,0-.06-.01-.11-.09-.16-.13-.33-.26-.7-.52-.92-.89-.08-.13-.21-.23-.35-.28-.15-.04-.34-.07-.46.02-.12.09-.25.18-.37.28-.06.04-.11.08-.18.1-.07.02-.16,0-.22.04-.04.03-.06.08-.07.13,0,.05-.02.11,0,.16.06.16.12.38.04.54-.03.06-.12.08-.19.06-.07-.02-.13-.06-.2-.08-.11-.03-.23-.02-.32.04-.09.06-.11.16-.15.27-.02.07.01.16.08.2.12.06.28-.05.41-.01.04-.01.07.02.08.06,0,.04-.02.07-.04.1-.13.15-.32.24-.5.33-.18.09-.38.18-.46.37-.05.12-.04.26.02.37.02.04.05.07.07.12.02.04.05.11.02.14-.04.04-.05.1-.03.15s.07.07.12.08c.05,0,.09,0,.14.03.04.02.08.06.08.1,0,.07-.05.12-.1.16-.1.08-.2.16-.3.24-.03.02-.06.05-.06.09,0,.03.04.06.07.06.03,0,.07,0,.1-.02.15-.06.29-.14.44-.17.13-.03.22-.14.27-.26.05-.12.08-.25.14-.37.06-.11.15-.21.26-.27.04-.02.1-.04.14-.03.05.02.06.07.04.12-.03.06-.09.1-.14.14-.05.04-.1.09-.12.16-.01.07.02.11.09.11.1.02.19-.05.26-.12.07-.07.16-.15.26-.15.29,0,.53.29.72.51.15.16.29.34.38.54.16.36.23.78.12,1.15-.06.21,0,.46.17.61.06.05.13.1.15.17.03.07,0,.15-.03.23-.15.41-.37.78-.42,1.21-.05.4-.05.86.2,1.17.28.34.37.77.5,1.2.06.2.15.39.27.56.04.05.08.11.15.11.04,0,.08-.02.1-.06.02-.04,0-.09,0-.13-.01-.1-.07-.18-.12-.27-.12-.18-.29-.38-.3-.6,0-.07,0-.14-.01-.2,0-.02,0-.04,0-.06,0-.02.02-.04.05-.04.02,0,.07.03.06.05.01.26.18.48.33.69.09.12.24.25.28.4.07.27.16.53.33.75.16.22.39.4.66.47.23.05.49.12.73.16.24.04.45.21.55.43.06.14.08.3.18.41.12.12.32.11.48.12.11.01.21.07.27.16.06.09.07.21.04.31-.03.1-.11.18-.17.27-.14.21-.1.47-.14.71-.07.39.15.76.36,1.1.17.27.26.59.51.79.3.23.46.61.51.99.05.38.14.82,0,1.17-.17.41-.34.86-.22,1.29.06.22.2.42.27.64.05.18.05.37.08.55.03.18.09.38.22.5.15.13.25.32.4.45.06.05.12.09.19.1.07,0,.16-.04.16-.11,0-.04-.01-.08-.03-.11-.09-.2-.18-.4-.27-.59-.03-.08,0-.15.03-.22.04-.07.1-.14.14-.21s.07-.16.04-.24c-.03-.08-.12-.12-.15-.2-.02-.07.01-.14.06-.19.05-.05.1-.1.14-.15.1-.14.08-.35-.04-.46-.03-.12.04-.25.13-.33.08-.09.19-.14.3-.2.11-.06.21-.12.28-.22-.01-.12.04-.24.13-.32.09-.08.2-.14.29-.22.24-.23.28-.6.42-.91.14-.29.39-.53.68-.65.14-.21.2-.49.22-.75,0-.12,0-.25.02-.37.03-.12.1-.24.22-.28.14-.04.24-.27.22-.41-.01-.14-.11-.27-.24-.34Z"/>
          <path class="cls-15" d="M48.41,16.93s-.05-.05-.08-.08c-.05-.07-.06-.16-.06-.25,0-.09,0-.18-.04-.25-.04-.08-.12-.14-.21-.12-.12.04-.27.05-.4,0-.19-.07-.3-.27-.49-.35-.17-.06-.35-.09-.52-.12-.19-.04-.39-.08-.59-.04-.19.05-.37.22-.35.42,0,.03-.03.06-.05.07s-.06.02-.08.03c-.13.03-.26.06-.39.09-.05.01-.11.03-.17.02-.06,0-.11-.02-.15-.06-.1-.11-.24-.17-.36-.26-.03-.02-.06-.05-.1-.04-.03,0-.06.02-.08.04-.11.09-.26.12-.4.11-.3-.04-.61-.12-.9-.21-.12-.04-.25-.03-.37.01-.02,0-.05.02-.06.04-.02.03,0,.07.02.1.04.07.09.16.12.24.01.03,0,.07-.02.1-.02.03-.06.04-.09.05-.15.07-.31.13-.46.2-.08.03-.17.07-.25.05-.07-.01-.13-.06-.18-.12-.04-.06-.09-.12-.12-.19-.02-.05-.07-.08-.12-.1-.05-.02-.11-.02-.16-.02-.08,0-.18,0-.26-.04-.03-.01-.07.01-.08.04s-.01.07-.02.1c-.02.09-.1.17-.19.2-.09.03-.19.03-.28,0-.09-.03-.2-.04-.28-.09-.11-.06-.27-.02-.34.08-.04.06-.06.15-.13.16-.07.01-.13-.07-.12-.14,0-.07.05-.13.08-.2.11-.23-.02-.5-.15-.72-.05-.08-.17-.1-.23-.04-.04.03-.06.08-.1.1-.05.02-.11,0-.14-.04-.04-.04-.05-.1-.08-.14-.05-.09-.11-.18-.19-.23-.09-.06-.21-.07-.28,0-.06.06-.07.15-.05.23.02.08.08.15.16.19.06.03.09.12.06.18-.02.07-.08.11-.15.14-.06.03-.13.05-.2.07-.17.06-.28.23-.44.32-.06.03-.1.09-.11.15-.01.06,0,.13.04.18.03.04.07.07.1.1s.05.1.02.14c-.02.03-.06.04-.1.04-.04,0-.07-.02-.11-.02-.06,0-.11.04-.13.09-.02.05-.02.11,0,.17s.05.08.08.13c.03.04.06.08.07.13.01.05,0,.1-.04.13-.04.03-.11.03-.15,0-.05-.02-.09-.06-.14-.09s-.11-.07-.15-.03c-.08.09-.08.22-.04.33.04.11.1.21.14.32.04.11.06.26-.03.34-.07.06-.18.03-.24-.03-.06-.06-.09-.15-.12-.24-.04-.14-.08-.28-.13-.42-.02-.05-.03-.1-.06-.15-.03-.04-.08-.08-.13-.07-.09,0-.14.12-.15.21-.01.28.23.53.18.8-.01.06-.07.09-.13.08-.06,0-.11-.04-.15-.08-.04-.04-.08-.08-.14-.1-.05-.02-.12-.03-.16.01-.05.05-.02.12-.02.19,0,.06-.05.1-.11.12-.05.02-.11.03-.17.05-.05.03-.09.07-.14.09-.07.03-.19,0-.19-.07,0-.06-.05-.11-.11-.11-.07,0-.13.06-.17.12-.04.06-.07.14-.13.18-.02.04-.07.06-.12.06-.05,0-.09-.02-.14-.02-.04,0-.09,0-.12.04-.03.03-.03.11,0,.14.01.03.02.07.02.1,0,.04-.01.07-.04.09-.05.04-.13.02-.18,0-.07-.03-.16.02-.19.09-.04.07-.04.15-.07.23s-.09.15-.16.15c-.08,0-.14-.08-.18-.15-.05-.08-.1-.16-.15-.25-.02-.03-.04-.06-.04-.09,0-.06.05-.1.11-.11s.11,0,.16.01c.05,0,.11.01.16-.01.09-.05.1-.17.06-.26-.04-.09-.1-.16-.19-.18-.25-.05-.51-.11-.67-.31-.06-.07-.1-.15-.17-.2-.07-.04-.17-.04-.25-.01-.08.03-.14.1-.23.13-.35.13-.6.42-.82.72-.12.16-.16.36-.23.55-.07.19-.19.38-.37.47-.03.02-.07.03-.09.06-.03.03-.04.06-.04.1,0,.04.03.06.04.1.01.03,0,.07,0,.11-.01.09-.01.19-.01.28,0,.05.01.1.04.14.03.04.09.06.13.04.07-.02.1-.12.17-.15.07-.03.16.03.19.1.03.07,0,.16.02.24.02.07.04.13.05.2.01.05.03.11.08.13.05.02.1,0,.15-.03.07-.04.14-.07.19-.13.05-.06.09-.14.08-.22-.05-.42-.18-.92.08-1.25.05-.07.11-.13.18-.19.04-.04.09-.08.14-.11.05-.03.12-.04.18-.02.06.02.1.07.1.13,0,.06-.04.11-.07.15-.06.07-.1.16-.17.22-.09.09-.11.24-.04.34.07.11.21.13.33.12.12,0,.24,0,.35.03.04,0,.09.03.09.07,0,.04-.04.07-.08.08-.08.02-.18,0-.26.04-.1.05-.16.19-.12.29.02.06-.03.12-.09.13-.06.02-.12.02-.17.05-.09.06-.08.2-.12.3-.05.14-.2.22-.35.24-.15.02-.31,0-.45-.04-.12-.03-.21-.13-.23-.25,0-.03,0-.06-.02-.09s-.03-.05-.06-.06c-.04,0-.07.03-.07.07,0,.04.01.07.03.11.02.06.04.1.04.16,0,.06-.04.12-.1.16-.05.04-.11.06-.17.09-.22.11-.44.26-.53.49-.03.08-.12.12-.2.15-.09.03-.18.07-.27.1-.08.03-.17.07-.18.15-.01.07.04.14.1.19.06.05.13.09.16.16.02.06.02.12-.02.18-.03.05-.1.08-.16.08-.12,0-.25,0-.36.05-.15.07-.22.22-.26.37-.06.19.01.42.17.54.16.13.39.15.57.05.34-.18.39-.68.72-.87.17-.1.38-.1.57-.1.33,0,.54.4.62.71.02.05.03.12.08.14.04.02.09,0,.12-.03.03-.03.05-.07.07-.11.03-.07.07-.14.05-.21-.02-.1-.13-.15-.22-.21-.12-.07-.23-.17-.31-.28-.03-.04-.06-.1-.03-.15.02-.04.08-.05.12-.04.04.01.08.04.12.07.31.25.57.56.67.95.01.05.02.09.04.13.02.04.07.07.12.07.06,0,.1-.08.1-.14,0-.06-.03-.12-.05-.18-.02-.06-.04-.13,0-.18.05-.04.13-.03.19,0,.05.04.09.1.13.15.08.14.17.27.25.41.05.08.12.13.21.14.09,0,.18-.01.27-.03.09-.02.18-.03.27,0,.11.04.19.16.19.28,0,.11-.06.21-.16.26s-.21.05-.32.04c-.18,0-.35,0-.53-.01-.12,0-.24,0-.35-.04-.11-.04-.23-.11-.34-.06-.07.03-.11.09-.16.15s-.1.12-.17.13c-.07.02-.16-.04-.15-.11-.08-.13-.26-.22-.41-.24-.05,0-.1,0-.14-.04-.06-.05-.04-.15-.04-.24,0-.15-.09-.29-.23-.34-.19-.08-.41-.04-.61.03-.2.06-.38.16-.59.19-.09.01-.17.01-.26.04-.08.02-.16.08-.19.16-.15.4-.53.68-.78,1.02-.17.22-.33.45-.43.72-.05.13-.04.28-.05.42,0,.09-.02.19-.02.28,0,.06,0,.11,0,.17,0,.1.05.19.11.27.18.05.28.28.34.46.06.18.11.38.25.5.13.1.3.12.46.09.16-.03.31-.11.45-.18.33-.17.76,0,1.08.19.06.03.12.06.17.1.08.06.16.14.16.24,0,.08-.06.14-.08.22-.04.12,0,.28.12.35.34.21.46.73.32,1.1-.05.14-.13.26-.17.41-.04.14-.01.32.11.4.16.1.2.32.23.51.03.16.02.32.04.48.02.16.08.32.2.42.19.14,0,.5.14.68.09.11.25.14.39.14.33,0,.66-.14.89-.38.12-.12.26-.23.31-.39.03-.1.04-.22.1-.31.06-.09.17-.14.26-.2.09-.07.16-.18.11-.28-.09-.18-.04-.42.08-.58.09-.13.24-.21.36-.33.12-.11.21-.28.15-.43-.12-.32-.12-.68-.04-1.01.08-.33.3-.64.61-.78.21-.09.37-.27.49-.46.12-.2.15-.47,0-.65-.08-.1-.23-.14-.35-.17-.12-.02-.25-.03-.36-.09-.1-.05-.17-.14-.21-.25-.03-.07-.11-.11-.17-.16-.06-.06-.1-.14-.14-.22-.07-.13-.14-.26-.21-.39-.15-.27-.27-.58-.42-.85-.02-.04-.05-.09-.05-.14,0-.05.03-.1.07-.11.06-.01.11.04.14.08.31.37.57.79.77,1.24.07.16.1.33.2.47.1.14.26.25.43.24.13,0,.26-.08.37-.15.17-.11.35-.21.52-.32.11-.07.22-.14.31-.23.09-.1.15-.22.13-.35-.01-.13-.12-.25-.25-.26-.18,0-.38-.04-.55-.1-.1-.04-.2-.1-.23-.2-.03-.12-.11-.22-.22-.29-.03-.02-.06-.04-.09-.06-.03-.03-.04-.06-.03-.1,0-.03.03-.05.06-.06.03,0,.06-.01.09,0,.05,0,.11.01.16.04.1.06.16.18.25.25.09.07.21.12.33.11.06,0,.12-.03.18-.02.07.01.13.06.19.11.06.04.13.08.21.06.2-.06.43.03.64.05.06,0,.12,0,.17.04.05.03.09.09.08.14-.02.11.01.22.1.29.09.06.22.06.31,0,.06-.05.15.02.19.09.03.07.02.16.02.24,0,.17.03.33.1.49.09.22.2.45.33.65.04.06.09.13.17.13.08,0,.15-.06.17-.14.02-.08.02-.16.02-.23.01-.24.13-.48.33-.62.13-.1.23-.23.36-.32.06-.04.12-.09.14-.16.01-.06,0-.13.03-.17.02-.03.07-.05.11-.04.04,0,.08.02.12.04.13.05.26.11.35.21.06.06.11.13.13.21.02.08.02.17.06.25.03.08.11.15.19.14.04,0,.08-.02.12-.02.06,0,.11.04.14.1.03.05.04.11.04.17.04.29,0,.6.12.86.04.08.09.15.13.23.07.11.15.23.22.34.04.06.1.09.17.11.04.01.1.02.13-.01.02-.02.02-.06.01-.09,0-.03-.03-.06-.05-.08-.07-.09-.11-.18-.17-.28-.06-.09-.12-.18-.18-.27-.05-.08-.11-.16-.13-.25-.03-.09-.03-.19.01-.27.03-.05.05-.09.11-.09.06,0,.11.02.14.07,0,.06.07.09.13.11.06.02.12.03.15.08.03.05.02.11.05.16.02.03.07.05.11.04.04-.01.07-.06.07-.1,0-.05.05-.13.1-.16.04-.03.09-.06.13-.1.07-.08.07-.2,0-.28-.19-.2-.37-.41-.43-.68-.01-.05-.02-.1,0-.15.01-.05.04-.09.09-.11.12-.03.25-.04.37-.05.08,0,.16-.02.23-.04.07-.02.15-.07.19-.13.09-.13.25-.21.39-.3.06-.04.13-.1.12-.18,0-.09.02-.16.07-.23.05-.07.11-.13.15-.21.04-.08.05-.18,0-.25-.05-.06-.09-.13-.11-.2-.01-.06-.01-.12-.02-.18-.02-.13-.08-.25-.17-.33-.08-.07-.09-.22-.02-.3.04-.04.1-.08.11-.13.01-.06-.04-.12-.09-.15-.05-.03-.11-.06-.14-.12-.03-.07,0-.16.07-.2.07-.04.15-.04.23-.01.13.04.22.15.3.26.09.13.14.3.2.45.02.04.04.09.08.12.07.05.17.02.22-.04.05-.07.06-.16.04-.24-.02-.1-.11-.2-.17-.28-.05-.06-.09-.12-.11-.19-.03-.12.03-.25.08-.36.06-.12.12-.24.21-.33.06-.06.14-.11.21-.17.07-.06.13-.14.13-.23.02-.4.18-.78.09-1.17-.04-.18-.12-.34-.22-.5-.07-.11-.16-.22-.28-.27-.02,0-.04-.01-.06-.02-.09-.04-.16-.13-.18-.23-.01-.1.03-.21.11-.27.1-.08.11-.21.09-.33-.01-.07-.04-.13-.02-.2.01-.05.05-.1.1-.13.05-.03.1-.05.16-.06.23-.07.47-.02.7-.08.09-.02.17-.05.23-.12.06-.07.07-.18,0-.24,0-.11-.02-.23-.02-.34,0-.05,0-.1,0-.14.01-.05.04-.09.09-.1.11-.03.22.11.32.07.04.02.08-.03.09-.07.01-.04.02-.1.06-.12.04-.02.09.02.11.06.02.04,0,.09,0,.14-.02.1-.05.2-.07.3-.07.29-.13.57-.2.86-.04.16,0,.33.1.47.18.25.3.54.44.81.02.03.04.07.08.08.07.02.13-.05.14-.13,0-.07-.03-.14-.04-.21-.03-.17.09-.33.14-.5.07-.25,0-.52-.14-.74-.09-.13-.22-.23-.24-.39-.02-.16.06-.33.2-.39.06-.02.12-.03.19-.04.06,0,.13-.02.18-.06.05-.04.08-.11.06-.17-.04-.11.01-.22.08-.32.06-.09.14-.19.14-.31,0-.06-.02-.13.02-.17.02-.02.05-.03.07-.05.06-.05.05-.17-.03-.2-.09-.04-.17-.11-.2-.2-.03-.09-.01-.18,0-.28.01-.08.02-.17.07-.24.05-.07.13-.13.22-.11.08.02.17.03.23.09.04.04.06.08.09.13.03.04.07.08.12.09s.11-.02.13-.07c0-.04,0-.08-.03-.11ZM35,23.92c-.03.09-.14.13-.23.12-.09,0-.18-.04-.28-.06-.21-.04-.44.01-.61.15-.07.06-.18.17-.28.09-.07-.06-.06-.18-.04-.25.08-.22.18-.41.35-.57.04-.04.08-.07.12-.11.02-.02.05-.04.08-.06.1-.04.21.02.29.08.13.09.26.18.4.28.06.04.11.08.15.13.04.06.06.13.04.19ZM36.36,24.61c-.12.08-.28,0-.35-.12-.07-.12-.07-.27-.09-.41-.05-.28-.36-.56-.23-.85.05-.11.18-.18.29-.15.12.02.2.15.18.27-.02.09-.09.15-.12.24-.04.13.03.26.11.36.09.1.19.19.26.3.06.12.06.29-.05.36ZM37.12,23.59c-.03.06-.09.13-.17.13-.1,0-.18-.11-.16-.2,0-.02.02-.05.03-.07.01-.03.03-.05.04-.08,0-.02.02-.04.03-.06.02-.05.05-.1.1-.12.23-.09.2.29.14.39Z"/>
        </g>
        <path class="cls-10" d="M30.07,21.78c.07.09.13.19.11.3-.02.15-.48.5-.12.54.25.03.67-.16.55-.48-.06-.16-.23-.24-.29-.4-.04-.1-.03-.2-.05-.3-.02-.1-.1-.21-.2-.2-.11,0-.18.14-.16.25.02.11.09.2.16.29Z"/>
        <path class="cls-5" d="M29.48,22.35s.01.07.03.1c.02.03.05.05.08.06.06,0,.11-.04.15-.09.05-.06.11-.13.14-.21.07-.17-.05-.35-.24-.26-.07.03-.12.1-.14.17-.02.07-.03.15-.01.23Z"/>
        <path class="cls-6" d="M45.04,25c-.06.06-.11.13-.12.22-.01.18.22.29.29.1.03-.08.02-.14.08-.21.07-.08.16-.16.25-.22.15-.1.33-.16.44-.31.13-.17.12-.41.1-.62,0-.07-.02-.15-.09-.17-.04,0-.09.02-.11.05-.02.04-.03.08-.04.12-.09.35-.3.67-.6.88-.07.05-.14.09-.2.15Z"/>
        <path class="cls-8" d="M42.58,29.86c-.19-.19-.38-.39-.57-.58-.05-.05-.11-.11-.18-.14-.07-.03-.16-.03-.21.02-.08.08-.04.22.04.3.08.08.19.12.28.19.11.09.18.23.25.37.07.13.15.27.28.34.11.06.35.08.39-.08.04-.14-.2-.33-.28-.42Z"/>
        <path class="cls-12" d="M43.91,30.02c.04-.07-.03-.17,0-.24.04-.11.22-.09.27-.2.04-.09-.05-.18-.05-.27,0-.13.18-.24.13-.37-.03-.09-.15-.11-.23-.07-.08.04-.14.11-.21.18-.14.13-.3.2-.48.25-.13.04-.24.08-.26.23-.04.36.34.53.63.56.07,0,.17,0,.2-.06Z"/>
        <path class="cls-11" d="M36.18,31.21c-.07.02-.11.09-.13.15-.02.07-.04.14-.09.19-.08.08-.22.07-.29.15-.08.08-.06.2-.08.3-.02.09-.05.15-.12.21-.12.12-.15.28,0,.42.1.1.27.11.39.03.13-.08.17-.25.2-.4.02-.15.02-.31.1-.44.04-.08.1-.14.16-.22.05-.07.09-.16.08-.25-.01-.09-.1-.17-.19-.14Z"/>
      </g>
    </g>
  </g>
  <g>
    <g>
      <path class="cls-35" d="M16.79,57v.24h-.62v1.72h-.28v-1.72h-.62v-.24h1.52Z"/>
      <path class="cls-33" d="M17.52,58.96v-2.15l.26-.05v.75s.1-.03.16-.04c.06-.01.11-.02.17-.02.12,0,.22.02.29.05s.14.08.19.14.08.13.1.21c.02.08.03.17.03.27v.83h-.26v-.77c0-.09,0-.17-.02-.23-.01-.06-.03-.12-.06-.16-.03-.04-.07-.07-.11-.09-.05-.02-.11-.03-.18-.03-.03,0-.06,0-.09,0-.03,0-.06,0-.09.01s-.05,0-.07.02-.04.01-.05.01v1.22h-.26Z"/>
      <path class="cls-38" d="M19.52,58.23c0-.13.02-.24.06-.34.04-.1.09-.18.15-.24.06-.06.13-.11.22-.14.08-.03.16-.05.25-.05.2,0,.35.06.46.19s.16.31.16.56v.04s0,.03,0,.05h-1.01c.01.15.06.27.13.35s.2.12.36.12c.09,0,.17,0,.23-.02.06-.02.11-.03.14-.05l.04.22s-.09.03-.17.05-.17.03-.27.03c-.13,0-.24-.02-.33-.06-.09-.04-.17-.09-.23-.16-.06-.07-.11-.15-.14-.24s-.04-.2-.04-.31ZM20.54,58.08c0-.12-.03-.22-.09-.29-.06-.08-.15-.11-.25-.11-.06,0-.11.01-.16.04-.05.02-.09.05-.12.09s-.06.08-.08.13c-.02.05-.03.1-.04.15h.73Z"/>
      <path class="cls-29" d="M24.25,57c-.06.06-.13.14-.2.21-.07.08-.15.16-.23.24s-.16.16-.24.24c-.08.08-.15.15-.22.22.08.06.17.13.26.21s.18.17.27.27c.09.09.17.19.25.29.08.1.14.19.19.28h-.32c-.06-.09-.12-.18-.2-.27-.07-.09-.15-.18-.23-.26s-.17-.16-.25-.23-.17-.13-.25-.18v.93h-.28v-1.96h.28v.87c.07-.06.14-.13.22-.21.08-.08.16-.16.24-.24s.15-.16.22-.23c.07-.07.13-.14.17-.19h.33Z"/>
      <path class="cls-41" d="M24.88,58.23c0-.13.02-.24.06-.34.04-.1.09-.18.15-.24.06-.06.13-.11.22-.14.08-.03.16-.05.25-.05.2,0,.35.06.46.19.11.12.16.31.16.56v.04s0,.03,0,.05h-1.01c.01.15.06.27.13.35.08.08.2.12.36.12.09,0,.17,0,.23-.02.06-.02.11-.03.14-.05l.04.22s-.09.03-.17.05-.17.03-.27.03c-.13,0-.24-.02-.33-.06s-.17-.09-.23-.16c-.06-.07-.11-.15-.14-.24s-.04-.2-.04-.31ZM25.89,58.08c0-.12-.03-.22-.09-.29s-.15-.11-.25-.11c-.06,0-.11.01-.16.04s-.09.05-.12.09-.06.08-.08.13c-.02.05-.03.1-.04.15h.73Z"/>
      <path class="cls-30" d="M26.84,59.23s.05.02.08.03c.03,0,.07.01.1.01.1,0,.19-.02.24-.07s.11-.12.16-.22c-.12-.23-.23-.47-.33-.72-.1-.25-.19-.51-.26-.77h.28c.02.08.05.18.08.27s.06.2.1.3.07.21.12.31.09.2.13.3c.07-.2.13-.39.19-.59.05-.19.1-.39.15-.6h.27c-.07.28-.14.54-.23.8-.08.26-.17.49-.27.72-.04.08-.08.16-.12.22-.04.06-.09.11-.14.15-.05.04-.1.07-.17.09s-.13.03-.21.03c-.02,0-.04,0-.07,0-.02,0-.04,0-.07-.01-.02,0-.04-.01-.06-.02-.02,0-.03-.01-.04-.01l.05-.21Z"/>
      <path class="cls-14" d="M31.34,57v.24h-.62v1.72h-.28v-1.72h-.62v-.24h1.52Z"/>
      <path class="cls-20" d="M33.22,58.23c0,.12-.02.22-.05.32-.03.09-.08.18-.14.24-.06.07-.13.12-.22.16-.09.04-.18.06-.28.06s-.19-.02-.28-.06c-.09-.04-.16-.09-.22-.16s-.11-.15-.14-.24c-.03-.09-.05-.2-.05-.32s.02-.22.05-.32c.03-.1.08-.18.14-.24s.14-.12.22-.16c.09-.04.18-.06.28-.06s.19.02.28.06c.09.04.16.09.22.16.06.07.11.15.14.24s.05.2.05.32ZM32.94,58.23c0-.17-.04-.3-.11-.39-.07-.1-.18-.15-.31-.15s-.23.05-.31.15c-.08.1-.11.23-.11.39s.04.3.11.39c.07.1.18.15.31.15s.23-.05.31-.15.11-.23.11-.39Z"/>
      <path class="cls-17" d="M36.5,57v.24h-.62v1.72h-.28v-1.72h-.62v-.24h1.52Z"/>
      <path class="cls-1" d="M37.24,58.96v-2.15l.26-.05v.75s.1-.03.16-.04.11-.02.17-.02c.12,0,.22.02.29.05s.14.08.19.14.08.13.1.21c.02.08.03.17.03.27v.83h-.26v-.77c0-.09,0-.17-.02-.23-.01-.06-.03-.12-.06-.16-.03-.04-.07-.07-.11-.09-.05-.02-.11-.03-.18-.03-.03,0-.06,0-.09,0-.03,0-.06,0-.09.01-.03,0-.05,0-.07.02-.02,0-.04.01-.05.01v1.22h-.26Z"/>
      <path class="cls-32" d="M39.24,58.23c0-.13.02-.24.06-.34.04-.1.09-.18.15-.24.06-.06.13-.11.22-.14.08-.03.16-.05.25-.05.2,0,.35.06.46.19.11.12.16.31.16.56v.04s0,.03,0,.05h-1.01c.01.15.06.27.13.35.08.08.2.12.36.12.09,0,.17,0,.23-.02.06-.02.11-.03.14-.05l.04.22s-.09.03-.17.05-.17.03-.27.03c-.13,0-.24-.02-.33-.06s-.17-.09-.23-.16c-.06-.07-.11-.15-.14-.24s-.04-.2-.04-.31ZM40.25,58.08c0-.12-.03-.22-.09-.29s-.15-.11-.25-.11c-.06,0-.11.01-.16.04s-.09.05-.12.09-.06.08-.08.13c-.02.05-.03.1-.04.15h.73Z"/>
      <path class="cls-23" d="M43.35,59c-.14,0-.26-.02-.38-.07-.11-.05-.21-.11-.29-.2s-.14-.19-.19-.32c-.04-.13-.07-.27-.07-.44s.03-.31.08-.44c.05-.13.12-.23.2-.32.09-.09.18-.15.3-.2.11-.05.23-.07.36-.07.08,0,.16,0,.22.02.07.01.12.02.17.04.05.01.09.03.12.05.03.02.05.03.06.03l-.08.23s-.04-.02-.07-.04c-.03-.01-.07-.03-.11-.04s-.09-.02-.13-.03c-.05,0-.1-.01-.15-.01-.1,0-.2.02-.28.05-.08.04-.15.09-.21.16-.06.07-.1.15-.13.25-.03.1-.05.21-.05.33s.01.22.04.32c.03.1.07.18.12.25s.12.12.21.16c.08.04.18.06.29.06.13,0,.23-.01.32-.04.08-.03.15-.05.19-.07l.07.23s-.04.02-.07.04c-.03.01-.08.03-.13.04-.05.01-.11.02-.18.03-.07,0-.14.01-.22.01Z"/>
      <path class="cls-42" d="M44.84,57.22s-.09-.02-.12-.05c-.03-.03-.05-.07-.05-.13s.02-.09.05-.13c.03-.03.07-.05.12-.05s.09.02.12.05c.03.03.05.07.05.13s-.02.09-.05.13c-.03.03-.07.05-.12.05ZM44.97,58.96h-.26v-1.47h.26v1.47Z"/>
      <path class="cls-39" d="M46.14,57.49h.56v.22h-.56v.68c0,.07,0,.13.02.18.01.05.03.09.05.11.02.03.05.05.09.06s.07.02.12.02c.08,0,.14,0,.19-.03.05-.02.08-.03.1-.04l.05.22s-.07.03-.14.05c-.07.02-.14.03-.23.03-.1,0-.18-.01-.25-.04-.07-.03-.12-.06-.16-.11-.04-.05-.07-.11-.08-.19-.02-.07-.02-.16-.02-.26v-1.31l.26-.05v.46Z"/>
      <path class="cls-31" d="M47.32,59.23s.05.02.08.03c.03,0,.07.01.1.01.1,0,.19-.02.24-.07s.11-.12.16-.22c-.12-.23-.23-.47-.33-.72-.1-.25-.19-.51-.26-.77h.28c.02.08.05.18.08.27s.06.2.1.3.07.21.12.31.09.2.13.3c.07-.2.13-.39.19-.59.05-.19.1-.39.15-.6h.27c-.07.28-.14.54-.23.8-.08.26-.17.49-.27.72-.04.08-.08.16-.12.22-.04.06-.09.11-.14.15-.05.04-.1.07-.17.09s-.13.03-.21.03c-.02,0-.04,0-.07,0-.02,0-.04,0-.07-.01-.02,0-.04-.01-.06-.02-.02,0-.03-.01-.04-.01l.05-.21Z"/>
    </g>
    <g>
      <path class="cls-26" d="M15.23,54.65v-5.1h3.44v.96h-2.3v1h2.04v.94h-2.04v1.23h2.46v.96h-3.61Z"/>
      <path class="cls-22" d="M22.02,54.65c-.2-.43-.4-.87-.6-1.33-.2-.46-.38-.92-.56-1.37-.18-.45-.34-.88-.49-1.29-.15-.41-.28-.78-.39-1.1h1.27c.1.3.2.61.32.95.12.34.24.68.36,1.02.12.34.24.66.35.97s.22.58.32.8c.1-.22.2-.49.31-.8s.23-.63.35-.97c.12-.34.24-.68.36-1.02.12-.34.22-.66.32-.96h1.22c-.11.33-.25.69-.39,1.1-.15.41-.31.84-.49,1.29-.18.45-.36.91-.56,1.37-.2.46-.4.9-.6,1.33h-1.09Z"/>
      <path class="cls-37" d="M26.55,54.65v-5.1h3.44v.96h-2.3v1h2.04v.94h-2.04v1.23h2.46v.96h-3.61Z"/>
      <path class="cls-18" d="M33.22,49.5c.72,0,1.27.14,1.65.41.38.27.58.68.58,1.22,0,.29-.05.55-.16.75-.11.21-.26.38-.46.51-.2.13-.44.22-.72.28-.28.06-.61.09-.96.09h-.57v1.89h-.71v-5.02c.2-.05.43-.08.67-.1.25-.02.47-.03.68-.03ZM33.28,50.12c-.3,0-.54,0-.7.02v2h.54c.25,0,.47-.02.66-.05.2-.03.36-.09.5-.16.13-.08.24-.18.31-.31.07-.13.11-.3.11-.51s-.04-.36-.11-.49c-.08-.13-.18-.23-.31-.31-.13-.08-.28-.13-.45-.16-.17-.03-.35-.04-.54-.04Z"/>
      <path class="cls-28" d="M38.39,50.73c.27,0,.51.04.7.11.19.07.34.17.46.3.12.13.2.28.25.46.05.18.07.38.07.59v2.39c-.06,0-.14.02-.25.04-.11.02-.22.03-.36.05-.13.01-.28.03-.43.04-.15.01-.31.02-.46.02-.22,0-.41-.02-.6-.07-.18-.04-.34-.11-.47-.21s-.24-.22-.31-.38c-.07-.16-.11-.35-.11-.57s.04-.39.13-.54c.09-.15.2-.27.35-.37.15-.09.32-.16.51-.21.2-.04.4-.07.62-.07.07,0,.14,0,.21.01.07,0,.14.02.21.03.07.01.12.02.17.03.05,0,.08.02.1.02v-.19c0-.11-.01-.22-.04-.33-.02-.11-.07-.21-.13-.29-.06-.09-.15-.15-.26-.21-.11-.05-.25-.08-.43-.08-.23,0-.42.02-.59.05-.17.03-.3.07-.38.1l-.08-.57c.09-.04.24-.08.44-.11.21-.04.43-.06.67-.06ZM38.45,54.16c.16,0,.31,0,.43-.01.13,0,.23-.02.31-.04v-1.14s-.13-.05-.24-.06c-.11-.02-.24-.03-.4-.03-.1,0-.21,0-.33.02-.12.01-.22.05-.32.09-.1.05-.18.11-.24.19-.06.08-.1.19-.1.32,0,.25.08.42.24.51.16.1.37.14.64.14Z"/>
      <path class="cls-19" d="M42.88,54.16c.28,0,.49-.04.62-.11.13-.07.2-.19.2-.35s-.07-.3-.2-.4c-.13-.1-.35-.21-.65-.33-.15-.06-.29-.12-.42-.18-.13-.06-.25-.13-.35-.22-.1-.08-.18-.18-.24-.3-.06-.12-.09-.26-.09-.43,0-.34.13-.61.38-.81s.59-.3,1.02-.3c.11,0,.22,0,.32.02.11.01.21.03.3.04.09.02.18.04.25.06.07.02.13.04.17.05l-.13.59c-.07-.04-.19-.08-.35-.12-.16-.04-.35-.06-.57-.06-.19,0-.36.04-.5.11-.14.08-.21.19-.21.36,0,.08.02.16.05.22.03.06.08.12.15.17.07.05.15.1.25.14.1.04.22.09.35.14.18.07.34.14.49.2.14.07.26.14.36.23.1.09.18.19.23.32.05.13.08.28.08.46,0,.35-.13.62-.39.8-.26.18-.64.27-1.12.27-.34,0-.6-.03-.79-.08-.19-.06-.32-.1-.39-.13l.13-.59c.08.03.2.07.38.13s.4.09.68.09Z"/>
      <path class="cls-16" d="M47.16,54.16c.28,0,.49-.04.62-.11.13-.07.2-.19.2-.35s-.07-.3-.2-.4c-.13-.1-.35-.21-.65-.33-.15-.06-.29-.12-.42-.18-.13-.06-.25-.13-.35-.22-.1-.08-.18-.18-.24-.3-.06-.12-.09-.26-.09-.43,0-.34.13-.61.38-.81s.59-.3,1.02-.3c.11,0,.22,0,.32.02.11.01.21.03.3.04.09.02.18.04.25.06.07.02.13.04.17.05l-.13.59c-.07-.04-.19-.08-.35-.12-.16-.04-.35-.06-.57-.06-.19,0-.36.04-.5.11-.14.08-.21.19-.21.36,0,.08.02.16.05.22.03.06.08.12.15.17.07.05.15.1.25.14.1.04.22.09.35.14.18.07.34.14.49.2.14.07.26.14.36.23.1.09.18.19.23.32.05.13.08.28.08.46,0,.35-.13.62-.39.8-.26.18-.64.27-1.12.27-.34,0-.6-.03-.79-.08-.19-.06-.32-.1-.39-.13l.13-.59c.08.03.2.07.38.13s.4.09.68.09Z"/>
    </g>
  </g>
</svg>